<svg width="36" height="36" viewBox="0 0 36 36" fill="none" xmlns="http://www.w3.org/2000/svg">
<path d="M7.5 30H24V33H7.5M16.5 7.5H15C14.2044 7.5 13.4413 7.81607 12.8787 8.37868C12.3161 8.94129 12 9.70435 12 10.5H19.5C19.5 9.70435 19.1839 8.94129 18.6213 8.37868C18.0587 7.81607 17.2956 7.5 16.5 7.5ZM24 12H33C33 12.7956 32.6839 13.5587 32.1213 14.1213C31.5587 14.6839 30.7956 15 30 15H28.5C26.9087 15 25.3826 15.6321 24.2574 16.7574C23.1321 17.8826 22.5 19.4087 22.5 21V22.5C22.5 24.0913 21.8679 25.6174 20.7426 26.7426C19.6174 27.8679 18.0913 28.5 16.5 28.5H15C13.4087 28.5 11.8826 27.8679 10.7574 26.7426C9.63214 25.6174 9 24.0913 9 22.5H6C5.20435 22.5 4.44129 22.1839 3.87868 21.6213C3.31607 21.0587 3 20.2956 3 19.5V15C3 14.2044 3.31607 13.4413 3.87868 12.8787C4.44129 12.3161 5.20435 12 6 12M9 15H6V19.5H9M28.5 7.5C29.2956 7.5 30.0587 7.81607 30.6213 8.37868C31.1839 8.94129 31.5 9.70435 31.5 10.5H33C33.021 9.90341 32.9189 9.30889 32.7002 8.75344C32.4814 8.198 32.1507 7.69352 31.7286 7.27141C31.3065 6.84929 30.802 6.51858 30.2466 6.29984C29.6911 6.08111 29.0966 5.97905 28.5 6C27.7044 6 26.9413 5.68393 26.3787 5.12132C25.8161 4.55871 25.5 3.79565 25.5 3H24C23.979 3.59659 24.0811 4.19111 24.2998 4.74656C24.5186 5.302 24.8493 5.80648 25.2714 6.2286C25.6935 6.65071 26.198 6.98142 26.7534 7.20016C27.3089 7.41889 27.9034 7.52095 28.5 7.5Z" fill="white"/>
</svg>
